<?xml version="1.0" encoding="UTF-8"?>
<svg version="1.1" xmlns="http://www.w3.org/2000/svg" width="494" height="494">
<path d="M0 0 C4.230273 0.82974618 5.48815513 2.44029063 8.125 5.875 C12.04490765 10.84580394 16.15065803 15.55029144 20.4453125 20.19921875 C22.39663883 22.33851688 24.30738311 24.49677435 26.20410156 26.68359375 C35.40179624 37.20444115 45.13466064 47.23671608 55.0859375 57.04296875 C55.84803528 57.79490509 56.61013306 58.54684143 57.39532471 59.32156372 C60.50525572 62.38636338 63.6172958 65.44877355 66.74365234 68.49682617 C92.78280086 93.91958385 109.63779464 123.12168874 110.42138672 160.23852539 C110.57516374 193.75026638 99.7991122 224.28432495 77 249 C76.12472656 249.95777344 75.24945313 250.91554688 74.34765625 251.90234375 C55.90897927 271.20744902 29.66519865 285.30018827 2.95776367 287.96240234 C2.31170166 287.97480957 1.66563965 287.9872168 1 288 C0 287 0 287 -0.1241985 285.0355491 C-0.12381878 284.16409095 -0.12343906 283.29263279 -0.12304783 282.39476681 C-0.12503888 281.39304123 -0.12702993 280.39131565 -0.12908131 279.35923475 C-0.12616847 278.24544543 -0.12325563 277.13165611 -0.12025452 275.9841156 C-0.12110894 274.81128165 -0.12196337 273.6384477 -0.12284368 272.43007332 C-0.12421185 269.16006641 -0.12106443 265.8900986 -0.11606562 262.62009633 C-0.11176439 259.09929026 -0.11320731 255.57848617 -0.1139679 252.05767822 C-0.11449334 245.9527944 -0.11134442 239.84792123 -0.10573006 233.74304008 C-0.09761781 224.91630668 -0.09500012 216.08957844 -0.09374207 207.26284171 C-0.09155111 192.94353543 -0.08488985 178.62423483 -0.07543945 164.30493164 C-0.06626646 150.39152047 -0.05918507 136.47811085 -0.05493164 122.56469727 C-0.05466892 121.70769226 -0.05440619 120.85068725 -0.05413551 119.96771239 C-0.05283051 115.66855459 -0.05156679 111.36939677 -0.05032361 107.07023895 C-0.03994964 71.38015525 -0.02233015 35.69007815 0 0 Z M20 71 C20 129.08 20 187.16 20 247 C37.25180229 242.68704943 52.87539431 227.23549774 62.1875 212.75 C75.51638372 190.1015183 79.40863777 164.4246659 73.03515625 138.90625 C67.14531547 117.51845903 53.01136759 102.67769592 37.5625 87.5 C35.64432502 85.60954083 33.72770602 83.71756413 31.81394958 81.82263184 C30.63367854 80.65452935 29.45074421 79.48910994 28.26478577 78.32678223 C25.88713973 75.97835856 23.86082527 73.79123791 22 71 C21.34 71 20.68 71 20 71 Z " fill="#C2A05E" transform="translate(259,174)"/>
<path d="M0 0 C0.66 0 1.32 0 2 0 C3.43572893 1.90924629 4.75683394 3.81681157 6.0625 5.8125 C10.35577809 12.19088509 15.00523332 18.1489876 20 24 C21.0209375 25.2065625 21.0209375 25.2065625 22.0625 26.4375 C26.37506811 31.42390687 30.93547919 35.78984183 36 40 C36.89589844 40.76054687 37.79179687 41.52109375 38.71484375 42.3046875 C43.33587319 46.20311181 47.98433158 50.02049171 52.81640625 53.65478516 C83.84463019 77.01006576 103.92166748 106.90849627 109.52804565 145.64881897 C110.08075661 150.15951818 110.1407225 154.61424365 110.12939453 159.15405273 C110.13202301 160.47012764 110.13202301 160.47012764 110.13470459 161.81278992 C110.1390739 164.68641184 110.13620436 167.5599713 110.1328125 170.43359375 C110.13348653 172.43758659 110.13445738 174.44157934 110.13571167 176.4455719 C110.1371816 180.63063338 110.13505518 184.81567344 110.13037109 189.00073242 C110.12464834 194.37675124 110.12797328 199.75272041 110.13394356 205.12873745 C110.13754621 209.25924559 110.1364124 213.38974183 110.13381577 217.52025032 C110.13314701 219.5038866 110.13397314 221.48752395 110.13629532 223.47115898 C110.13881976 226.2313718 110.13498541 228.99150234 110.12939453 231.75170898 C110.13141876 232.57711182 110.13344299 233.40251465 110.13552856 234.25292969 C110.11426798 239.88573202 110.11426798 239.88573202 109 241 C107.5982167 241.09762523 106.19155547 241.12631658 104.78637695 241.12698364 C103.42338974 241.13121338 103.42338974 241.13121338 102.03286743 241.13552856 C100.52579727 241.13249222 100.52579727 241.13249222 98.98828125 241.12939453 C97.9363559 241.13114685 96.88443054 241.13289917 95.80062866 241.13470459 C92.30456926 241.13912543 88.80855997 241.13618429 85.3125 241.1328125 C82.89493805 241.13348547 80.47737617 241.13445544 78.05981445 241.13571167 C72.98550779 241.13718896 67.91121869 241.13503309 62.83691406 241.13037109 C56.31615297 241.1246738 49.79543304 241.12795263 43.27467346 241.13394356 C38.28031094 241.13754833 33.28595826 241.13641097 28.29159546 241.13381577 C25.88650508 241.13314626 23.48141382 241.13397572 21.07632446 241.13629532 C17.72143165 241.13882048 14.3666065 241.13498317 11.01171875 241.12939453 C10.00700531 241.13141876 9.00229187 241.13344299 7.96713257 241.13552856 C6.60414536 241.13129883 6.60414536 241.13129883 5.21362305 241.12698364 C4.41941452 241.12660662 3.62520599 241.12622959 2.80693054 241.12584114 C1 241 1 241 0 240 C-0.09804237 236.91548172 -0.12990727 233.85333935 -0.12025452 230.76841736 C-0.12110894 229.78751037 -0.12196337 228.80660338 -0.12284368 227.79597193 C-0.12450146 224.48237138 -0.11897226 221.16882056 -0.11352539 217.85522461 C-0.11324356 215.49057517 -0.11340118 213.12592564 -0.1139679 210.76127625 C-0.11422605 204.98951639 -0.10987474 199.21777304 -0.10353024 193.44601696 C-0.09639628 186.73250885 -0.09488634 180.01900312 -0.09374207 173.30549175 C-0.09155123 161.33215702 -0.08489029 149.35882909 -0.07543945 137.38549805 C-0.06626615 125.75170933 -0.05918492 114.11792246 -0.05493164 102.48413086 C-0.05466892 101.76751464 -0.05440619 101.05089843 -0.05413551 100.31256657 C-0.05283051 96.71766012 -0.05156679 93.12275365 -0.05032361 89.52784717 C-0.03995001 59.68522668 -0.02225671 29.84261413 0 0 Z M35 66 C34.84624486 84.10603223 34.69820774 102.21210166 34.5570364 120.31823635 C34.49135843 128.72463357 34.42378719 137.13100771 34.35180664 145.53735352 C34.28909602 152.86165229 34.22988899 160.18596943 34.17494446 167.51033074 C34.14570989 171.39092664 34.1146835 175.27149007 34.07946587 179.15203667 C34.04641096 182.80036452 34.01802087 186.44869817 33.99329376 190.09709167 C33.97859567 192.08290861 33.95887502 194.06868634 33.93904114 196.05445862 C33.93200165 197.2254007 33.92496216 198.39634277 33.91770935 199.60276794 C33.90941321 200.62687995 33.90111708 201.65099195 33.89256954 202.70613766 C33.74039618 204.9648136 33.74039618 204.9648136 35 206 C36.71865409 206.0935919 38.44115744 206.11744611 40.16235352 206.11352539 C41.81395226 206.11341209 41.81395226 206.11341209 43.49891663 206.11329651 C44.6968132 206.10813522 45.89470978 206.10297394 47.12890625 206.09765625 C48.34827377 206.0962413 49.5676413 206.09482635 50.82395935 206.09336853 C54.7368307 206.08774967 58.64964581 206.07519396 62.5625 206.0625 C65.20768147 206.05748743 67.85286383 206.0529241 70.49804688 206.04882812 C76.99871726 206.03777411 83.49935461 206.02101764 90 206 C90.07023197 198.71413635 90.12317571 191.42834843 90.15543652 184.14221191 C90.17093828 180.7571192 90.1918835 177.37226194 90.22631836 173.98730469 C90.55320549 139.29881129 84.04747268 110.7729133 59.37084961 85.02026367 C52.48585726 78.03156606 45.05746885 71.60763871 37 66 C36.34 66 35.68 66 35 66 Z " fill="#C1A05E" transform="translate(131,222)"/>
<path d="M0 0 C0.66335358 0.00248749 1.32670715 0.00497498 2.01016235 0.00753784 C34.77024994 0.19750145 62.5769551 13.1935048 86.0625 35.625 C106.19119617 56.4915516 119.40525105 85.69232296 119.5 114.875 C119.45339957 116.68797846 119.39756555 118.50091883 119.3125 120.3125 C112.56220662 121.5380291 105.84614862 121.5323905 99 121.5625 C97.80826172 121.583125 96.61652344 121.60375 95.38867188 121.625 C93.68614258 121.63273437 93.68614258 121.63273437 91.94921875 121.640625 C90.91498779 121.6499707 89.88075684 121.65931641 88.81518555 121.66894531 C87.5763562 121.49250488 87.5763562 121.49250488 86.3125 121.3125 C83.81922732 117.57259098 83.79138511 114.28567875 83.4375 109.9375 C81.70130722 92.58764104 75.30287389 75.38673208 62.74609375 62.87890625 C61.3125 61.3125 61.3125 61.3125 61.3125 59.3125 C60.72726562 59.04953125 60.14203125 58.7865625 59.5390625 58.515625 C57.21274319 57.25859632 55.60519508 55.87410982 53.6875 54.0625 C42.95876 44.57169154 28.47822533 38.44289229 14.3125 36.3125 C13.590625 36.20292969 12.86875 36.09335938 12.125 35.98046875 C-10.45672765 33.04013963 -33.17222987 39.03594862 -51.4375 52.6875 C-52.87263311 53.87384179 -54.28942073 55.08270805 -55.6875 56.3125 C-56.79351562 57.27736328 -56.79351562 57.27736328 -57.921875 58.26171875 C-73.34135371 72.64437044 -82.04124658 93.1044196 -83.00390625 114 C-83.62443733 135.96399541 -79.21228533 154.86472684 -65.62109375 172.515625 C-64.6875 174.3125 -64.6875 174.3125 -64.78515625 176.2578125 C-65.98614777 178.99253778 -67.64424631 180.75944833 -69.6875 182.9375 C-70.89599609 184.24074219 -70.89599609 184.24074219 -72.12890625 185.5703125 C-72.97324219 186.47523438 -73.81757813 187.38015625 -74.6875 188.3125 C-76.33676302 190.14274861 -77.98275397 191.97595257 -79.625 193.8125 C-81.61093477 196.02609925 -83.58474608 198.20974608 -85.6875 200.3125 C-87.51171875 200.30078125 -87.51171875 200.30078125 -89.6875 199.3125 C-91.45093449 197.40728184 -92.97052219 195.57859707 -94.5 193.5 C-94.93795898 192.91395996 -95.37591797 192.32791992 -95.82714844 191.72412109 C-115.03440617 165.5867722 -122.24735508 133.16574845 -117.91650391 101.12988281 C-114.53913657 80.21349749 -106.03501144 59.09758135 -91.6875 43.3125 C-90.97980469 42.4875 -90.27210938 41.6625 -89.54296875 40.8125 C-66.47992075 14.31624871 -35.12489875 -0.15747097 0 0 Z " fill="#C1A05E" transform="translate(249.6875,31.6875)"/>
<path d="M0 0 C0.66 0 1.32 0 2 0 C2 45.54 2 91.08 2 138 C1.34 138 0.68 138 0 138 C-1.7265625 135.6640625 -1.7265625 135.6640625 -3.625 132.625 C-4.25664062 131.62726563 -4.88828125 130.62953125 -5.5390625 129.6015625 C-7 127 -7 127 -7 125 C-7.66 125 -8.32 125 -9 125 C-9.33 123.68 -9.66 122.36 -10 121 C-10.66 121 -11.32 121 -12 121 C-15.5932397 117.95588909 -17.7148962 114.54934517 -18.56732178 109.91699219 C-18.78896692 106.22540653 -18.83069729 102.57317107 -18.8046875 98.875 C-18.81595484 97.51877497 -18.82984296 96.16256942 -18.84622192 94.80639648 C-18.88207615 91.26182253 -18.88265736 87.71811426 -18.87554932 84.17340088 C-18.87463262 80.54643525 -18.90754836 76.91978757 -18.9375 73.29296875 C-18.99118825 66.19526558 -19.00756525 59.09792403 -19 52 C-19.94020996 52.76675049 -20.88041992 53.53350098 -21.84912109 54.32348633 C-22.3779892 54.75478348 -22.9068573 55.18608063 -23.45175171 55.63044739 C-26.71854658 58.52019542 -29.19846821 62.13450528 -31.8515625 65.57421875 C-33.86058851 67.84259175 -35.21327749 68.92187885 -38 70 C-38 70.66 -38 71.32 -38 72 C-38.66 72 -39.32 72 -40 72 C-40.24492187 72.57234375 -40.48984375 73.1446875 -40.7421875 73.734375 C-42.21110099 76.38024402 -43.95348244 78.14853139 -46.125 80.25 C-46.84945312 80.95640625 -47.57390625 81.6628125 -48.3203125 82.390625 C-49.15175781 83.18726563 -49.15175781 83.18726563 -50 84 C-55.19210472 80.19695186 -60.15609762 76.23841458 -65 72 C-64.67 71.01 -64.34 70.02 -64 69 C-63.34 69 -62.68 69 -62 69 C-61.7525 68.4225 -61.505 67.845 -61.25 67.25 C-59.81700012 64.67060021 -58.21575324 62.93878408 -56 61 C-55.34 61 -54.68 61 -54 61 C-54 60.34 -54 59.68 -54 59 C-52.3563186 57.31066078 -50.6857124 55.64740076 -49 54 C-48.278125 53.071875 -47.55625 52.14375 -46.8125 51.1875 C-46.214375 50.465625 -45.61625 49.74375 -45 49 C-44.34 49 -43.68 49 -43 49 C-42.61908203 48.12601563 -42.61908203 48.12601563 -42.23046875 47.234375 C-40.86679667 44.75811967 -39.35774797 43.19479374 -37.3125 41.25 C-34.02256928 38.04261235 -30.96519614 34.73724994 -27.97265625 31.25390625 C-25.57613796 28.51570614 -23.09984815 25.85455285 -20.625 23.1875 C-16.09065628 18.30003372 -11.88291977 13.24070018 -7.77734375 7.984375 C-7.19082031 7.32953125 -6.60429687 6.6746875 -6 6 C-5.34 6 -4.68 6 -4 6 C-3.566875 5.071875 -3.566875 5.071875 -3.125 4.125 C-2 2 -2 2 0 0 Z " fill="#F0EADB" transform="translate(239,174)"/>
<path d="M0 0 C4.230273 0.82974618 5.48815513 2.44029063 8.125 5.875 C12.04490765 10.84580394 16.15065803 15.55029144 20.4453125 20.19921875 C22.39663883 22.33851688 24.30738311 24.49677435 26.20410156 26.68359375 C35.40179624 37.20444115 45.13466064 47.23671608 55.0859375 57.04296875 C55.84803528 57.79490509 56.61013306 58.54684143 57.39532471 59.32156372 C60.50525572 62.38636338 63.6172958 65.44877355 66.74365234 68.49682617 C91.60965522 92.77420855 109.31022942 121.41880383 110.27734375 157.0625 C110.37899815 166.43164745 110.39037754 175.71951253 109 185 C107 183 107 183 106.82055664 180.12109375 C106.85012451 178.90550781 106.87969238 177.68992187 106.91015625 176.4375 C106.93347683 175.07829954 106.95607224 173.71908648 106.97802734 172.35986328 C106.99258972 171.64767639 107.0071521 170.9354895 107.02215576 170.20172119 C107.47476079 145.50153809 103.89636157 123.46546716 91 102 C90.46761719 101.06929688 89.93523437 100.13859375 89.38671875 99.1796875 C80.36571521 84.06573885 66.14454442 72.04561419 53.75 59.75 C50.36681914 56.39359894 46.9871028 53.03376272 43.609375 49.671875 C42.84880798 48.91960632 42.08824097 48.16733765 41.30462646 47.39227295 C37.19689306 43.30326139 33.26279317 39.1269176 29.4875946 34.72817993 C26.65625832 31.438938 23.6732369 28.28365782 20.72265625 25.1015625 C19 23 19 23 19 21 C18.4328125 20.7834375 17.865625 20.566875 17.28125 20.34375 C13.32014957 18.01049906 10.98643005 14.13302541 8.21875 10.53125 C6.17262421 8.19693748 4.85430493 7.08982552 2 6 C2.33043808 7.06893997 2.66087616 8.13787994 3.00132751 9.23921204 C4.39929957 14.88425965 4.14193694 20.39441534 3.97875977 26.17260742 C3.92681461 28.74033915 3.87497649 31.30807304 3.82322693 33.87580872 C3.7915035 35.2703824 3.75938967 36.66494725 3.72691154 38.05950356 C3.54905892 45.80643025 3.42259475 53.55431876 3.29736328 61.30224609 C3.28353808 62.14577829 3.26971287 62.9893105 3.25546873 63.85840428 C2.88019454 87.21311445 2.89474404 110.56863384 2.90234375 133.92578125 C2.90274361 136.15458043 2.90312633 138.38337962 2.90349197 140.6121788 C2.9062293 153.05380235 2.91558176 165.49541432 2.9279753 177.93703163 C2.93941569 189.65047553 2.94471575 201.36392022 2.94967639 213.07736838 C2.95995804 237.05158513 2.97739091 261.02579191 3 285 C4.88138672 284.51781006 4.88138672 284.51781006 6.80078125 284.02587891 C10.20543313 283.15328378 13.48739771 282.63844517 17 282.375 C18.423125 282.26285156 18.423125 282.26285156 19.875 282.1484375 C20.57625 282.09945313 21.2775 282.05046875 22 282 C22 282.66 22 283.32 22 284 C19.43923903 284.67404284 16.87673417 285.339414 14.3125 286 C13.59126953 286.19078125 12.87003906 286.3815625 12.12695312 286.578125 C8.35916915 287.54157661 4.92376481 288.36011608 1 288 C0 287 0 287 -0.1241985 285.0355491 C-0.12381878 284.16409095 -0.12343906 283.29263279 -0.12304783 282.39476681 C-0.12503888 281.39304123 -0.12702993 280.39131565 -0.12908131 279.35923475 C-0.12616847 278.24544543 -0.12325563 277.13165611 -0.12025452 275.9841156 C-0.12110894 274.81128165 -0.12196337 273.6384477 -0.12284368 272.43007332 C-0.12421185 269.16006641 -0.12106443 265.8900986 -0.11606562 262.62009633 C-0.11176439 259.09929026 -0.11320731 255.57848617 -0.1139679 252.05767822 C-0.11449334 245.9527944 -0.11134442 239.84792123 -0.10573006 233.74304008 C-0.09761781 224.91630668 -0.09500012 216.08957844 -0.09374207 207.26284171 C-0.09155111 192.94353543 -0.08488985 178.62423483 -0.07543945 164.30493164 C-0.06626646 150.39152047 -0.05918507 136.47811085 -0.05493164 122.56469727 C-0.05466892 121.70769226 -0.05440619 120.85068725 -0.05413551 119.96771239 C-0.05283051 115.66855459 -0.05156679 111.36939677 -0.05032361 107.07023895 C-0.03994964 71.38015525 -0.02233015 35.69007815 0 0 Z " fill="#BFAC87" transform="translate(259,174)"/>
<path d="M0 0 C0.66 0 1.32 0 2 0 C3.6203364 2.03062341 5.10101986 4.04722813 6.5625 6.1875 C6.97435547 6.76564453 7.38621094 7.34378906 7.81054688 7.93945312 C10.09777407 11.25237632 11.56792078 13.97484092 12 18 C8.28347053 14.55876901 6.08728583 11.32220016 3 7 C3 82.9 3 158.8 3 237 C8.80864066 237.85635757 8.80864066 237.85635757 14.52427673 238.12025452 C15.35007233 238.12162918 16.17586792 238.12300385 17.02668762 238.12442017 C18.34946968 238.11902725 18.34946968 238.11902725 19.69897461 238.11352539 C20.64609314 238.11367142 21.59321167 238.11381744 22.56903076 238.1139679 C25.68015889 238.1132747 28.79122615 238.10551015 31.90234375 238.09765625 C34.06710274 238.09578996 36.23186214 238.09436705 38.3966217 238.09336853 C44.07981544 238.08955994 49.7629834 238.07974385 55.44616699 238.06866455 C61.25121716 238.05841473 67.05627151 238.05386327 72.86132812 238.04882812 C84.2408967 238.03812006 95.62044621 238.02106361 107 238 C107.04665576 227.34138132 107.08203615 216.68278754 107.10362434 206.02408695 C107.11399357 201.0730684 107.12802491 196.12212049 107.15087891 191.17114258 C107.17285516 186.37948871 107.18461998 181.58790214 107.18975449 176.79620171 C107.19340633 174.98207988 107.20053504 173.16796109 107.21146011 171.35386848 C107.27855856 159.73383637 106.59062463 148.50939491 105 137 C104.78472181 135.14662683 104.57494524 133.29258995 104.375 131.4375 C104.25125 130.303125 104.1275 129.16875 104 128 C104.66 127.67 105.32 127.34 106 127 C106.48292321 129.33261023 106.96139859 131.66599588 107.4375 134 C107.57220703 134.64839844 107.70691406 135.29679688 107.84570312 135.96484375 C107.97783203 136.61582031 108.10996094 137.26679688 108.24609375 137.9375 C108.36654053 138.52402344 108.4869873 139.11054688 108.61108398 139.71484375 C109.72212033 146.24296693 110.14588475 152.54541488 110.12939453 159.15405273 C110.13202301 160.47012764 110.13202301 160.47012764 110.13470459 161.81278992 C110.1390739 164.68641184 110.13620436 167.5599713 110.1328125 170.43359375 C110.13348653 172.43758659 110.13445738 174.44157934 110.13571167 176.4455719 C110.1371816 180.63063338 110.13505518 184.81567344 110.13037109 189.00073242 C110.12464834 194.37675124 110.12797328 199.75272041 110.13394356 205.12873745 C110.13754621 209.25924559 110.1364124 213.38974183 110.13381577 217.52025032 C110.13314701 219.5038866 110.13397314 221.48752395 110.13629532 223.47115898 C110.13881976 226.2313718 110.13498541 228.99150234 110.12939453 231.75170898 C110.13141876 232.57711182 110.13344299 233.40251465 110.13552856 234.25292969 C110.11426798 239.88573202 110.11426798 239.88573202 109 241 C107.5982167 241.09762523 106.19155547 241.12631658 104.78637695 241.12698364 C103.42338974 241.13121338 103.42338974 241.13121338 102.03286743 241.13552856 C100.52579727 241.13249222 100.52579727 241.13249222 98.98828125 241.12939453 C97.9363559 241.13114685 96.88443054 241.13289917 95.80062866 241.13470459 C92.30456926 241.13912543 88.80855997 241.13618429 85.3125 241.1328125 C82.89493805 241.13348547 80.47737617 241.13445544 78.05981445 241.13571167 C72.98550779 241.13718896 67.91121869 241.13503309 62.83691406 241.13037109 C56.31615297 241.1246738 49.79543304 241.12795263 43.27467346 241.13394356 C38.28031094 241.13754833 33.28595826 241.13641097 28.29159546 241.13381577 C25.88650508 241.13314626 23.48141382 241.13397572 21.07632446 241.13629532 C17.72143165 241.13882048 14.3666065 241.13498317 11.01171875 241.12939453 C10.00700531 241.13141876 9.00229187 241.13344299 7.96713257 241.13552856 C6.60414536 241.13129883 6.60414536 241.13129883 5.21362305 241.12698364 C4.41941452 241.12660662 3.62520599 241.12622959 2.80693054 241.12584114 C1 241 1 241 0 240 C-0.09804237 236.91548172 -0.12990727 233.85333935 -0.12025452 230.76841736 C-0.12110894 229.78751037 -0.12196337 228.80660338 -0.12284368 227.79597193 C-0.12450146 224.48237138 -0.11897226 221.16882056 -0.11352539 217.85522461 C-0.11324356 215.49057517 -0.11340118 213.12592564 -0.1139679 210.76127625 C-0.11422605 204.98951639 -0.10987474 199.21777304 -0.10353024 193.44601696 C-0.09639628 186.73250885 -0.09488634 180.01900312 -0.09374207 173.30549175 C-0.09155123 161.33215702 -0.08489029 149.35882909 -0.07543945 137.38549805 C-0.06626615 125.75170933 -0.05918492 114.11792246 -0.05493164 102.48413086 C-0.05466892 101.76751464 -0.05440619 101.05089843 -0.05413551 100.31256657 C-0.05283051 96.71766012 -0.05156679 93.12275365 -0.05032361 89.52784717 C-0.03995001 59.68522668 -0.02225671 29.84261413 0 0 Z " fill="#BCA375" transform="translate(131,222)"/>
<path d="M0 0 C0.66335358 0.00248749 1.32670715 0.00497498 2.01016235 0.00753784 C34.77024994 0.19750145 62.5769551 13.1935048 86.0625 35.625 C106.19119617 56.4915516 119.40525105 85.69232296 119.5 114.875 C119.45339957 116.68797846 119.39756555 118.50091883 119.3125 120.3125 C112.56220662 121.5380291 105.84614862 121.5323905 99 121.5625 C97.80826172 121.583125 96.61652344 121.60375 95.38867188 121.625 C93.68614258 121.63273437 93.68614258 121.63273437 91.94921875 121.640625 C90.91498779 121.6499707 89.88075684 121.65931641 88.81518555 121.66894531 C87.5763562 121.49250488 87.5763562 121.49250488 86.3125 121.3125 C83.790161 117.52899151 83.7034274 114.09277985 83.3125 109.6875 C82.69495399 103.42595773 81.89508934 97.41677318 80.3125 91.3125 C80.9725 90.9825 81.6325 90.6525 82.3125 90.3125 C85.37842271 99.55114709 87.3125 108.55179731 87.3125 118.3125 C97.2125 118.3125 107.1125 118.3125 117.3125 118.3125 C113.02385442 82.07344487 102.37488619 51.95636244 73.36328125 27.86328125 C61.79749365 18.95838074 50.02780597 12.99820682 36.3125 8.3125 C35.37019531 7.98121094 34.42789063 7.64992188 33.45703125 7.30859375 C27.46574971 5.33690014 21.59768005 4.65902133 15.3125 4.3125 C15.3125 3.6525 15.3125 2.9925 15.3125 2.3125 C14.10134521 2.32035522 14.10134521 2.32035522 12.86572266 2.32836914 C9.22298962 2.34909929 5.58026898 2.36214749 1.9375 2.375 C0.66648437 2.38337891 -0.60453125 2.39175781 -1.9140625 2.40039062 C-3.73164063 2.40522461 -3.73164063 2.40522461 -5.5859375 2.41015625 C-7.26695557 2.41801147 -7.26695557 2.41801147 -8.98193359 2.42602539 C-11.6875 2.3125 -11.6875 2.3125 -13.6875 1.3125 C-13.6875 1.9725 -13.6875 2.6325 -13.6875 3.3125 C-14.95722656 3.53164063 -16.22695312 3.75078125 -17.53515625 3.9765625 C-27.51535074 5.78619028 -36.61422615 8.06564248 -45.9140625 12.140625 C-48.6875 13.3125 -48.6875 13.3125 -50.6875 13.3125 C-51.0175 13.9725 -51.3475 14.6325 -51.6875 15.3125 C-53.17796201 16.14053445 -54.7061395 16.90138905 -56.25 17.625 C-60.40441962 19.62770444 -64.2575015 21.83965264 -68.09375 24.39453125 C-69.6875 25.3125 -69.6875 25.3125 -71.6875 25.3125 C-72.1825 26.7975 -72.1825 26.7975 -72.6875 28.3125 C-74.3271721 29.67889342 -75.99860128 31.0074419 -77.6875 32.3125 C-79.37091581 33.96224749 -81.03547378 35.63132038 -82.6875 37.3125 C-83.53828125 38.16585937 -84.3890625 39.01921875 -85.265625 39.8984375 C-107.22670799 62.82272588 -116.52368724 93.36868269 -115.91796875 124.63671875 C-115.70070719 131.31006738 -114.99690104 137.75646445 -113.6875 144.3125 C-113.53152344 145.14523438 -113.37554687 145.97796875 -113.21484375 146.8359375 C-112.77166799 149.01829882 -112.25942379 151.16058532 -111.6875 153.3125 C-111.51863281 153.95574219 -111.34976563 154.59898437 -111.17578125 155.26171875 C-107.60936001 167.18764964 -101.43389567 178.91180667 -94.6875 189.3125 C-95.6775 189.3125 -96.6675 189.3125 -97.6875 189.3125 C-99.29927074 187.14812215 -100.65452802 185.07430784 -102 182.75 C-102.39662842 182.07396729 -102.79325684 181.39793457 -103.2019043 180.70141602 C-119.16450801 152.76605054 -123.1352706 119.16543136 -115.11767578 88.10498047 C-110.64292922 71.81861173 -103.09958815 55.86803903 -91.6875 43.3125 C-90.97980469 42.4875 -90.27210938 41.6625 -89.54296875 40.8125 C-66.47992075 14.31624871 -35.12489875 -0.15747097 0 0 Z " fill="#CBB285" transform="translate(249.6875,31.6875)"/>
<path d="M0 0 C4.5749352 2.51706472 7.02554521 5.31025681 9.2578125 9.99609375 C11.09462865 16.67872093 8.7755298 21.12155953 5.71484375 26.97265625 C3.24484878 31.19287826 0.44712871 35.08779156 -2.51171875 38.9765625 C-4.16904739 41.04792863 -4.16904739 41.04792863 -5.1484375 43.15625 C-5.8084375 43.15625 -6.4684375 43.15625 -7.1484375 43.15625 C-8.48046875 41.43359375 -8.48046875 41.43359375 -9.9609375 39.09375 C-11.80738316 36.20952102 -13.68012815 33.42773857 -15.7734375 30.71875 C-19.89484485 24.89239564 -22.86761894 19.09410334 -21.6484375 11.84375 C-20.1970365 6.46006488 -18.08708865 3.43399735 -13.3984375 0.34375 C-8.61472902 -1.40414348 -4.73092083 -1.85796163 0 0 Z " fill="#EFE9D9" transform="translate(256.1484375,119.84375)"/>
<path d="M0 0 C5 0 5 0 6.84375 1.57421875 C7.3903125 2.27160156 7.936875 2.96898437 8.5 3.6875 C12.56876267 8.78304948 17.22072497 13.22321881 21.86328125 17.79296875 C23.67982007 19.59101191 25.49622257 21.3891928 27.3125 23.1875 C28.24384766 24.10208984 29.17519531 25.01667969 30.13476562 25.95898438 C31.01455078 26.83232422 31.89433594 27.70566406 32.80078125 28.60546875 C34.00988159 29.79885864 34.00988159 29.79885864 35.2434082 31.01635742 C37 33 37 33 37 35 C37.66 35 38.32 35 39 35 C42 38.46153846 42 38.46153846 42 41 C42.99 41.33 43.98 41.66 45 42 C46.46484375 44.44140625 46.46484375 44.44140625 47.9375 47.5625 C48.45699219 48.64917969 48.97648437 49.73585938 49.51171875 50.85546875 C50.24841797 52.41201172 50.24841797 52.41201172 51 54 C52.03843958 56.03319077 53.08647811 58.06086584 54.140625 60.0859375 C60.76840976 74.84782173 61.62791334 93.23251996 59 109 C56.47672035 105.21508053 56.85750746 103.32327941 57 98.8125 C57.40780503 71.44286763 48.79687667 49.28277926 29.69726562 29.54174805 C26.04316014 25.8240888 22.33615471 22.1605524 18.625 18.5 C17.34197616 17.22703781 16.05942112 15.95360293 14.77734375 14.6796875 C12.44378619 12.36231483 10.10771551 10.04755038 7.76806641 7.73632812 C5.83944492 5.82981996 3.91612068 3.91898497 2 2 C2.00184359 2.90005957 2.00368717 3.80011913 2.00558662 4.72745323 C2.049704 26.6009182 2.08282648 48.47437554 2.10362434 70.3478756 C2.11394867 80.92561818 2.12803101 91.50333113 2.15087891 102.08105469 C2.17077747 111.29772194 2.18370802 120.51436772 2.18817699 129.73105586 C2.19079038 134.61381539 2.19695682 139.49651349 2.21146011 144.37925339 C2.22498828 148.97070259 2.22923235 153.56206479 2.22621536 158.15353203 C2.22676767 159.8426568 2.2307734 161.53178435 2.23841095 163.22089195 C2.2482978 165.51930789 2.24599206 167.81739128 2.24050903 170.11581421 C2.24235262 171.4044808 2.24419621 172.69314739 2.24609566 174.02086449 C2 177 2 177 0 179 C0 119.93 0 60.86 0 0 Z " fill="#C9B186" transform="translate(277,243)"/>
<path d="M0 0 C0.66 0 1.32 0 2 0 C3.6203364 2.03062341 5.10101986 4.04722813 6.5625 6.1875 C6.97435547 6.76564453 7.38621094 7.34378906 7.81054688 7.93945312 C10.09777407 11.25237632 11.56792078 13.97484092 12 18 C8.28347053 14.55876901 6.08728583 11.32220016 3 7 C2.67 84.22 2.34 161.44 2 241 C1.34 240.67 0.68 240.34 0 240 C0 160.8 0 81.6 0 0 Z " fill="#C9AD7E" transform="translate(131,222)"/>
<path d="M0 0 C2.94082355 0.32968874 3.93658573 0.93313126 6.0078125 3.1171875 C6.70648438 4.02726563 7.40515625 4.93734375 8.125 5.875 C12.04490765 10.84580394 16.15065803 15.55029144 20.4453125 20.19921875 C22.39663883 22.33851688 24.30738311 24.49677435 26.20410156 26.68359375 C35.40179624 37.20444115 45.13466064 47.23671608 55.0859375 57.04296875 C55.84803528 57.79490509 56.61013306 58.54684143 57.39532471 59.32156372 C60.50525572 62.38636338 63.6172958 65.44877355 66.74365234 68.49682617 C91.60965522 92.77420855 109.31022942 121.41880383 110.27734375 157.0625 C110.37899815 166.43164745 110.39037754 175.71951253 109 185 C107 183 107 183 106.82055664 180.12109375 C106.85012451 178.90550781 106.87969238 177.68992187 106.91015625 176.4375 C106.93347683 175.07829954 106.95607224 173.71908648 106.97802734 172.35986328 C106.99258972 171.64767639 107.0071521 170.9354895 107.02215576 170.20172119 C107.47476079 145.50153809 103.89636157 123.46546716 91 102 C90.46761719 101.06929688 89.93523437 100.13859375 89.38671875 99.1796875 C80.36571521 84.06573885 66.14454442 72.04561419 53.75 59.75 C50.36681914 56.39359894 46.9871028 53.03376272 43.609375 49.671875 C42.84880798 48.91960632 42.08824097 48.16733765 41.30462646 47.39227295 C37.19689306 43.30326139 33.26279317 39.1269176 29.4875946 34.72817993 C26.65625832 31.438938 23.6732369 28.28365782 20.72265625 25.1015625 C19 23 19 23 19 21 C18.43667969 20.78214844 17.87335938 20.56429687 17.29296875 20.33984375 C14.24769422 18.56040735 12.51671755 16.30593111 10.3125 13.5625 C9.52488281 12.59441406 8.73726563 11.62632812 7.92578125 10.62890625 C6 8 6 8 5 5 C4.34 5 3.68 5 3 5 C1.375 2.5 1.375 2.5 0 0 Z " fill="#CAB38B" transform="translate(259,174)"/>
<path d="M0 0 C1.32 0 2.64 0 4 0 C3.67 46.86 3.34 93.72 3 142 C2.01 142.33 1.02 142.66 0 143 C0 95.81 0 48.62 0 0 Z " fill="#C3AF8F" transform="translate(163,286)"/>
<path d="M0 0 C4.87988538 0.45691811 7.94227037 2.88087363 11.625 5.875 C12.23891602 6.36895264 12.85283203 6.86290527 13.48535156 7.37182617 C38.04347269 27.44716623 53.75671036 55.46439435 57.80224609 87.00585938 C58.29762356 92.00122128 58.23515038 96.99216785 58 102 C51.24970662 103.2255291 44.53364862 103.2198905 37.6875 103.25 C36.49576172 103.270625 35.30402344 103.29125 34.07617188 103.3125 C32.94115234 103.31765625 31.80613281 103.3228125 30.63671875 103.328125 C29.60248779 103.3374707 28.56825684 103.34681641 27.50268555 103.35644531 C26.67679932 103.23881836 25.85091309 103.12119141 25 103 C22.477661 99.21649151 22.3909274 95.78027985 22 91.375 C21.38245399 85.11345773 20.58258934 79.10427318 19 73 C19.99 72.505 19.99 72.505 21 72 C24.06592271 81.23864709 26 90.23929731 26 100 C35.9 100 45.8 100 56 100 C51.86385904 65.04960891 41.84399481 33.80465963 13.38476562 10.68798828 C10.80596693 8.69132669 8.18359694 6.77352202 5.53125 4.875 C3.47729802 3.35355409 1.72908806 1.86928439 0 0 Z " fill="#D0B78B" transform="translate(311,50)"/>
<path d="M0 0 C3.40636812 3.35191463 6.64214342 6.80002602 9.8125 10.375 C13.96784434 14.95873035 18.23619703 19.06580006 23 23 C23.89332031 23.75796875 24.78664062 24.5159375 25.70703125 25.296875 C30.329978 29.19881171 34.98136352 33.01825937 39.81640625 36.65478516 C61.66460879 53.10016412 87.83801136 78.46064933 92 107 C91.34 107.99 90.68 108.98 90 110 C89.6596875 109.030625 89.319375 108.06125 88.96875 107.0625 C80.90934044 84.56473189 69.62134214 65.38350709 51.08203125 49.76953125 C48.74438717 47.78275307 46.50380982 45.70626935 44.25 43.625 C39.70739458 39.51436012 34.90265013 35.89756517 29.96875 32.2734375 C26.16908918 29.36369724 22.65880604 26.20268962 19.15625 22.9453125 C17.0464218 20.96850844 17.0464218 20.96850844 14.71875 19.3671875 C14.1515625 18.91601562 13.584375 18.46484375 13 18 C13 17.34 13 16.68 13 16 C12.34 16 11.68 16 11 16 C6.76861236 12.23876654 2.94893786 7.84395978 0 3 C0 2.01 0 1.02 0 0 Z " fill="#C6B087" transform="translate(144,239)"/>
<path d="M0 0 C7.27524574 11.92412825 5.42023672 31.07906577 5.328125 44.5078125 C5.32505754 46.49608211 5.32318894 48.48435389 5.32244873 50.47262573 C5.31789581 54.59202596 5.30365001 58.71122518 5.28125 62.83056641 C5.25263419 68.11996296 5.24199963 73.40920467 5.2375679 78.69867134 C5.23342764 82.78198801 5.22362735 86.86527332 5.21169281 90.94857407 C5.20599036 92.9015058 5.20123157 94.85444051 5.19742584 96.80737686 C5.19059586 99.51372962 5.17698817 102.21995655 5.16113281 104.92626953 C5.16001495 105.73439087 5.15889709 106.54251221 5.15774536 107.37512207 C5.1147144 112.8852856 5.1147144 112.8852856 4 114 C1.98035801 114.07244053 -0.04167124 114.08377188 -2.0625 114.0625 C-3.16722656 114.05347656 -4.27195313 114.04445313 -5.41015625 114.03515625 C-6.26480469 114.02355469 -7.11945313 114.01195312 -8 114 C-8.33 113.34 -8.66 112.68 -9 112 C-5.37 112 -1.74 112 2 112 C2.04665046 101.21099728 2.08203353 90.42201914 2.10362434 79.63293552 C2.11399469 74.62138327 2.12802819 69.60990079 2.15087891 64.59838867 C2.17285102 59.74838019 2.18461914 54.89843818 2.18975449 50.04838371 C2.19340705 48.21193332 2.20053726 46.37548594 2.21146011 44.53906441 C2.27806928 32.8597012 1.62465554 21.56646975 0 10 C-0.38828902 6.9978566 -0.73073369 4.01578262 -1 1 C-0.67 0.67 -0.34 0.34 0 0 Z " fill="#BFA689" transform="translate(236,349)"/>
<path d="M0 0 C1.8284361 2.65418144 2.02410869 3.82906722 1.56640625 7.07421875 C-4.4647321 28.78162332 -13.66999876 47.38131214 -29 64 C-29.87527344 64.95777344 -30.75054687 65.91554688 -31.65234375 66.90234375 C-38.4737739 74.044311 -47.40338805 82.80112935 -57 86 C-55.551082 82.36195588 -53.79639934 80.91919569 -50.5 78.875 C-48.05297382 77.34163619 -46.04652463 76.04652463 -44 74 C-42.8371651 73.18202545 -41.6698697 72.37038133 -40.5 71.5625 C-26.11073251 60.82268441 -12.1130138 41.94145193 -7.640625 24.28125 C-6.97823925 21.9225105 -6.06884984 19.8890116 -5 17.6875 C-2.36623951 12.05530449 -1.23708531 6.06359238 0 0 Z " fill="#D3BC91" transform="translate(365,359)"/>
<path d="M0 0 C1.485 0.99 1.485 0.99 3 2 C3 2.66 3 3.32 3 4 C3.66 4 4.32 4 5 4 C4.67 4.66 4.34 5.32 4 6 C3.34 5.67 2.68 5.34 2 5 C2.3304834 5.99257812 2.6609668 6.98515625 3.00146484 8.0078125 C4.69410483 14.8328834 4.13060296 21.89958846 3.9765625 28.875 C3.95035588 30.4105476 3.92509212 31.94611154 3.90072632 33.48168945 C3.83446179 37.49970394 3.75548796 41.51736934 3.67376709 45.53509521 C3.59246713 49.64435552 3.52332433 53.75381897 3.453125 57.86328125 C3.31390787 65.90910074 3.16124884 73.95459203 3 82 C2.67 82 2.34 82 2 82 C-0.12771195 54.65663786 -0.2250145 27.4136894 0 0 Z " fill="#C1A778" transform="translate(259,175)"/>
<path d="M0 0 C0.99 0.99 0.99 0.99 2 2 C-1.75029744 3.32091757 -4.75603082 2.71876639 -8.625 2.0625 C-33.87847826 -1.76457351 -56.44645163 6.50098526 -77 21 C-75.86163209 16.72363107 -74.06163748 14.98774279 -70.30078125 12.71679688 C-69.70652344 12.37712891 -69.11226562 12.03746094 -68.5 11.6875 C-67.90574219 11.32849609 -67.31148437 10.96949219 -66.69921875 10.59960938 C-62.31206845 8 -62.31206845 8 -60 8 C-59.67 7.34 -59.34 6.68 -59 6 C-56.5234375 5 -56.5234375 5 -53.375 4 C-51.73144531 3.47792969 -51.73144531 3.47792969 -50.0546875 2.9453125 C-49.04664063 2.63335937 -48.03859375 2.32140625 -47 2 C-45.2675 1.443125 -45.2675 1.443125 -43.5 0.875 C-29.06622414 -2.73344397 -14.576437 -3.05482897 0 0 Z " fill="#C4AA82" transform="translate(271,66)"/>
<path d="M0 0 C0.66 0.66 1.32 1.32 2 2 C1.60167969 2.83660156 1.20335937 3.67320313 0.79296875 4.53515625 C-8.82239496 25.66088237 -9.54409628 48.5596103 -4 71 C-4.99 71.495 -4.99 71.495 -6 72 C-13.58959358 54.27965427 -12.50571499 29.97943053 -6 12 C-4.26217376 7.85712691 -2.24839401 3.88972164 0 0 Z " fill="#CCB38A" transform="translate(174,109)"/>
<path d="M0 0 C1.32 0 2.64 0 4 0 C3.78510357 7.39770709 3.55985984 14.79502217 3.32132149 22.19200706 C3.2108907 25.62657153 3.10405646 29.06117014 3.00537109 32.49609375 C2.89181805 36.4430703 2.76274854 40.38946487 2.6328125 44.3359375 C2.59938751 45.57242035 2.56596252 46.8089032 2.53152466 48.08285522 C2.49163422 49.22388702 2.45174377 50.36491882 2.41064453 51.54052734 C2.36401169 53.05276382 2.36401169 53.05276382 2.31643677 54.59555054 C2 57 2 57 0 59 C0 39.53 0 20.06 0 0 Z " fill="#C6A974" transform="translate(163,286)"/>
<path d="M0 0 C4.60024616 6.90036923 3.13214751 17.32606699 3.09765625 25.34765625 C3.0962413 26.60009628 3.09482635 27.85253632 3.09336853 29.14292908 C3.08874587 32.44231371 3.07979075 35.74164776 3.06866455 39.04101562 C3.05836054 42.41991564 3.05385182 45.79882311 3.04882812 49.17773438 C3.03784325 55.78517573 3.02113844 62.39258374 3 69 C2.34 69 1.68 69 1 69 C0.98969254 68.2955777 0.97938507 67.5911554 0.96876526 66.86538696 C0.87029213 60.18730146 0.7677128 53.50929266 0.66066074 46.83133888 C0.60578148 43.39914442 0.55242268 39.9669411 0.50268555 36.53466797 C0.44527574 32.57772093 0.38098844 28.62089921 0.31640625 24.6640625 C0.29969376 23.44699615 0.28298126 22.22992981 0.26576233 20.97598267 C0.1607127 14.86400893 -0.11336667 8.87090829 -0.89002991 2.80477905 C-0.92632004 2.20920197 -0.96261017 1.61362488 -1 1 C-0.67 0.67 -0.34 0.34 0 0 Z " fill="#C2AA7E" transform="translate(220,359)"/>
<path d="M0 0 C8.91996298 8.91996298 9.14455048 30.46339623 9.25097656 42.43310547 C9.24875341 50.69543507 9.24174981 58.81847102 8 67 C6 65 6 65 5.82055664 62.12109375 C5.85012451 60.90550781 5.87969238 59.68992187 5.91015625 58.4375 C5.93319473 57.07764772 5.95554763 55.7177837 5.97729492 54.35791016 C5.99909317 53.28950897 5.99909317 53.28950897 6.02133179 52.19952393 C6.31190163 36.67503827 5.80715483 21.84168206 0.55078125 7.04296875 C-0.09831022 4.63534577 -0.09097472 2.48231023 0 0 Z " fill="#D2B78D" transform="translate(360,292)"/>
<path d="M0 0 C1.98 0 3.96 0 6 0 C6 0.66 6 1.32 6 2 C6.61488281 2.03738281 7.22976563 2.07476562 7.86328125 2.11328125 C8.67152344 2.17902344 9.47976563 2.24476562 10.3125 2.3125 C11.11300781 2.37050781 11.91351563 2.42851563 12.73828125 2.48828125 C15.39660743 3.08973329 16.23443722 3.98591226 18 6 C18.66 6.33 19.32 6.66 20 7 C20 7.66 20 8.32 20 9 C20.87205078 9.39638672 20.87205078 9.39638672 21.76171875 9.80078125 C25.68045258 11.90034719 28.73998902 15.01063144 32 18 C32.58007812 18.50273438 33.16015625 19.00546875 33.7578125 19.5234375 C37.87898369 23.29958041 40.94456708 27.60367771 44 32.25 C44.41048584 32.86496338 44.82097168 33.47992676 45.24389648 34.11352539 C46.24802006 35.69112425 47.13384071 37.34263752 48 39 C47.67 39.99 47.34 40.98 47 42 C44.64961802 38.9729929 42.62718169 35.82850225 40.625 32.5625 C38.05893371 28.47640719 35.49493521 25.28312095 32 22 C32 21.34 32 20.68 32 20 C31.41476562 19.73703125 30.82953125 19.4740625 30.2265625 19.203125 C27.90024319 17.94609632 26.29269508 16.56160982 24.375 14.75 C17.14683338 8.31157751 9.05362448 4.27471524 0 1 C0 0.67 0 0.34 0 0 Z " fill="#C7B086" transform="translate(279,71)"/>
<path d="M0 0 C0.33 0 0.66 0 1 0 C2.14506243 16.15810314 -5.17955377 30.64394863 -15.3046875 42.92578125 C-17.54234899 45.66356524 -19.53849051 48.55734645 -21.54296875 51.46875 C-23.28517264 53.29969887 -24.53722355 53.62029999 -27 54 C-25.6457763 50.73896706 -23.67518665 48.3925899 -21.31884766 45.78979492 C-9.65128342 32.84183684 -2.52982533 17.28270148 0 0 Z " fill="#C3AC81" transform="translate(333,352)"/>
<path d="M0 0 C5.23657028 9.60329865 4.26897317 21.20875497 4.1953125 31.82421875 C4.191574 33.42275311 4.18873099 35.02128978 4.18673706 36.61982727 C4.17916641 40.79054288 4.15957583 44.9611152 4.1373291 49.1317749 C4.11672769 53.40228335 4.10770503 57.67281536 4.09765625 61.94335938 C4.07632252 70.29563806 4.04226778 78.64780112 4 87 C3.67 87 3.34 87 3 87 C2.99191315 86.28606583 2.98382629 85.57213165 2.97549438 84.83656311 C2.89676567 78.02815102 2.80925747 71.2198989 2.71247292 64.41172123 C2.66303781 60.91359792 2.61671523 57.41549742 2.578125 53.91723633 C2.41328548 39.17092373 2.22770686 24.60235369 0 10 C-0.39205904 6.99833664 -0.7307328 4.01579269 -1 1 C-0.67 0.67 -0.34 0.34 0 0 Z " fill="#CCB27C" transform="translate(236,349)"/>
<path d="M0 0 C0.66 0 1.32 0 2 0 C2 11.22 2 22.44 2 34 C1.34 33.67 0.68 33.34 0 33 C-0.33 24.09 -0.66 15.18 -1 6 C-1.99 6.99 -2.98 7.98 -4 9 C-4.66 9 -5.32 9 -6 9 C-6.09152344 9.60328125 -6.18304688 10.2065625 -6.27734375 10.828125 C-7.17720492 13.53257263 -8.20702019 14.2082314 -10.5625 15.75 C-11.20316406 16.17796875 -11.84382812 16.6059375 -12.50390625 17.046875 C-12.99761719 17.36140625 -13.49132812 17.6759375 -14 18 C-13.40716913 14.39428893 -11.97258223 12.45570562 -9.5625 9.75 C-8.94503906 9.04359375 -8.32757813 8.3371875 -7.69140625 7.609375 C-6 6 -6 6 -4 6 C-3.566875 5.071875 -3.566875 5.071875 -3.125 4.125 C-2 2 -2 2 0 0 Z " fill="#FAF6ED" transform="translate(239,174)"/>
<path d="M0 0 C1.31682429 2.5323544 2.39681352 5.01791294 3.4375 7.6875 C3.953125 8.780625 4.46875 9.87375 5 11 C5.99 11.33 6.98 11.66 8 12 C8 12.99 8 13.98 8 15 C9.66666667 17.33333333 9.66666667 17.33333333 12 19 C14.21858253 18.86358623 14.21858253 18.86358623 16 18 C15.67 18.99 15.34 19.98 15 21 C16.65 19.68 18.3 18.36 20 17 C20.33 17.66 20.66 18.32 21 19 C20.05016642 20.50539661 19.08988109 22.00420347 18.125 23.5 C17.59132812 24.3353125 17.05765625 25.170625 16.5078125 26.03125 C16.01023438 26.6809375 15.51265625 27.330625 15 28 C14.34 28 13.68 28 13 28 C11.66796875 26.27734375 11.66796875 26.27734375 10.1875 23.9375 C8.34105434 21.05327102 6.46830935 18.27148857 4.375 15.5625 C1.3689737 11.43772604 -0.28143676 6.77165325 -2 2 C-1.34 2 -0.68 2 0 2 C0 1.34 0 0.68 0 0 Z " fill="#F3F1E5" transform="translate(236,135)"/>
<path d="M0 0 C5.85041751 8.77562626 5.56559676 19.83496426 6 30 C14.25 30 22.5 30 31 30 C31 30.33 31 30.66 31 31 C26.70845978 31.0867562 22.41714332 31.1403089 18.125 31.1875 C16.29001953 31.22520508 16.29001953 31.22520508 14.41796875 31.26367188 C12.66806641 31.27817383 12.66806641 31.27817383 10.8828125 31.29296875 C9.26463623 31.31653442 9.26463623 31.31653442 7.61376953 31.34057617 C6.75122559 31.22818604 5.88868164 31.1157959 5 31 C2.47778888 27.21668332 2.39043667 23.78021189 2 19.375 C1.50673742 14.32320683 1.0066605 9.38244649 -0.1875 4.4375 C-0.5896875 2.7359375 -0.5896875 2.7359375 -1 1 C-0.67 0.67 -0.34 0.34 0 0 Z " fill="#DDCCB3" transform="translate(331,122)"/>
<path d="M0 0 C0.66 0 1.32 0 2 0 C-0.426804 5.56887654 -4.90302711 9.61750064 -9 14 C-9.62003906 14.68578125 -10.24007813 15.3715625 -10.87890625 16.078125 C-16.9560153 22.53587371 -25.49436136 30.16478712 -34 33 C-32.551082 29.36195588 -30.79639934 27.91919569 -27.5 25.875 C-25.05297382 24.34163619 -23.04652463 23.04652463 -21 21 C-19.8371651 20.18202545 -18.6698697 19.37038133 -17.5 18.5625 C-11.26277459 13.94444462 -5.83686993 7.97294665 -1.33203125 1.6640625 C-0.89246094 1.11492187 -0.45289063 0.56578125 0 0 Z " fill="#CAB38A" transform="translate(342,412)"/>
<path d="M0 0 C0.66 0.33 1.32 0.66 2 1 C-0.48939394 4.05839827 -2.86024045 6.86976951 -5.75 9.5625 C-8.14507293 12.15716234 -8.70324176 13.53782048 -9 17 C-8.4225 17.28875 -7.845 17.5775 -7.25 17.875 C-5.16666667 18.91666667 -3.08333333 19.95833333 -1 21 C-1 21.66 -1 22.32 -1 23 C-5.1724106 22.48118887 -7.25416821 21.28848726 -10.3125 18.4375 C-11.35857422 17.47650391 -11.35857422 17.47650391 -12.42578125 16.49609375 C-12.94527344 16.00238281 -13.46476563 15.50867188 -14 15 C-13.67 14.01 -13.34 13.02 -13 12 C-12.34 12 -11.68 12 -11 12 C-10.7525 11.4225 -10.505 10.845 -10.25 10.25 C-8.81700012 7.67060021 -7.21575324 5.93878408 -5 4 C-4.34 4 -3.68 4 -3 4 C-3 3.34 -3 2.68 -3 2 C-2.01 1.34 -1.02 0.68 0 0 Z " fill="#F1EEE2" transform="translate(188,231)"/>
<path d="M0 0 C0.33 0 0.66 0 1 0 C1 4.29 1 8.58 1 13 C-3.52190297 13.75365049 -6.8168576 14.07746674 -11.2734375 13.87890625 C-12.42714844 13.83056641 -13.58085937 13.78222656 -14.76953125 13.73242188 C-16.55423828 13.64831055 -16.55423828 13.64831055 -18.375 13.5625 C-19.58800781 13.51029297 -20.80101562 13.45808594 -22.05078125 13.40429688 C-25.03414513 13.27509608 -28.01713373 13.14014959 -31 13 C-31 12.34 -31 11.68 -31 11 C-21.1 11 -11.2 11 -1 11 C-0.67 7.37 -0.34 3.74 0 0 Z " fill="#C3AB7D" transform="translate(368,139)"/>
<path d="M0 0 C-2.71865235 1.8124349 -5.338325 3.01948378 -8.34521484 4.25927734 C-16.63841894 7.69074779 -23.66627741 11.79787844 -31 17 C-31.66 17.33 -32.32 17.66 -33 18 C-31.86163209 13.72363107 -30.06163748 11.98774279 -26.30078125 9.71679688 C-25.70652344 9.37712891 -25.11226562 9.03746094 -24.5 8.6875 C-23.90574219 8.32849609 -23.31148437 7.96949219 -22.69921875 7.59960938 C-18.31206845 5 -18.31206845 5 -16 5 C-15.67 4.34 -15.34 3.68 -15 3 C-10.12560517 0.76290932 -5.38029909 -0.41386916 0 0 Z " fill="#C4B089" transform="translate(227,69)"/>
<path d="M0 0 C0.33 0 0.66 0 1 0 C1.0292427 4.33331896 1.04688017 8.66661221 1.0625 13 C1.07087891 14.22074219 1.07925781 15.44148438 1.08789062 16.69921875 C1.10464844 22.89960932 0.97272146 28.8726207 0 35 C-2 33 -2 33 -2.15112305 30.17431641 C-2.10511963 28.99530762 -2.05911621 27.81629883 -2.01171875 26.6015625 C-1.96466797 25.31765625 -1.91761719 24.03375 -1.86914062 22.7109375 C-1.83925049 22.04030273 -1.80936035 21.36966797 -1.77856445 20.67871094 C-1.68817613 18.64024829 -1.61324475 16.60167859 -1.54101562 14.5625 C-1.110975 3.69716975 -1.110975 3.69716975 0 0 Z " fill="#DAC094" transform="translate(368,324)"/>
<path d="M0 0 C3.27771833 0.24279395 4.10757008 1.11972086 6.3515625 3.6171875 C9.02617456 6.9353858 11.38952779 10.41406722 13.6875 14 C14.27241211 14.88558594 14.27241211 14.88558594 14.86914062 15.7890625 C17.2044988 19.41385775 18.81848619 22.85522427 20 27 C19.34 27.33 18.68 27.66 18 28 C17.41605469 26.81857422 17.41605469 26.81857422 16.8203125 25.61328125 C12.89051446 17.96194635 8.42097853 11.28683527 3.0390625 4.58203125 C1 2 1 2 0 0 Z " fill="#C2AE85" transform="translate(193,310)"/>
<path d="M0 0 C8.90478683 5.62407589 16.74709462 12.3824234 24 20 C23.34 20.66 22.68 21.32 22 22 C21.42894531 21.39414062 20.85789063 20.78828125 20.26953125 20.1640625 C13.66802894 13.34216027 6.62858794 7.61980616 -1 2 C-0.67 1.34 -0.34 0.68 0 0 Z " fill="#C5AE85" transform="translate(170,288)"/>
<path d="M0 0 C0.66 0 1.32 0 2 0 C1.67 10.23 1.34 20.46 1 31 C-1.34963594 27.47554609 -1.24591382 26.00489606 -1.23046875 21.8359375 C-1.22756836 20.02996094 -1.22756836 20.02996094 -1.22460938 18.1875 C-1.21236328 16.929375 -1.20011719 15.67125 -1.1875 14.375 C-1.18685547 13.10914063 -1.18621094 11.84328125 -1.18554688 10.5390625 C-1.14016594 1.14016594 -1.14016594 1.14016594 0 0 Z " fill="#C1AE97" transform="translate(165,286)"/>
<path d="M0 0 C0.66 0.66 1.32 1.32 2 2 C1.443125 2.51046875 0.88625 3.0209375 0.3125 3.546875 C-5.92734462 9.49159183 -10.46192524 15.69209215 -15 23 C-15.66 22.34 -16.32 21.68 -17 21 C-16.60167969 20.40832031 -16.20335937 19.81664063 -15.79296875 19.20703125 C-15.26316406 18.41683594 -14.73335937 17.62664062 -14.1875 16.8125 C-13.63191406 15.98621094 -13.07632813 15.15992187 -12.50390625 14.30859375 C-10.94349448 11.99295594 -10.94349448 11.99295594 -9.625 9.375 C-7.04479886 5.6039368 -3.5079718 2.89136868 0 0 Z " fill="#D0B48F" transform="translate(192,86)"/>
<path d="M0 0 C8.09888047 3.45552234 14.59915248 13.11686391 18 21 C17.67 21.99 17.34 22.98 17 24 C14.64961802 20.9729929 12.62718169 17.82850225 10.625 14.5625 C8.05893371 10.47640719 5.49493521 7.28312095 2 4 C2 3.34 2 2.68 2 2 C1.34 2 0.68 2 0 2 C0 1.34 0 0.68 0 0 Z " fill="#CFBA90" transform="translate(309,89)"/>
<path d="M0 0 C4.875 2.75 4.875 2.75 6 5 C6.9075 4.690625 7.815 4.38125 8.75 4.0625 C11.16894068 3.27169247 13.53200079 2.59553894 16 2 C15.09515208 3.15518918 14.1755794 4.29885406 13.25 5.4375 C12.73953125 6.07558594 12.2290625 6.71367187 11.703125 7.37109375 C9.80332371 9.18810554 8.56413092 9.60423197 6 10 C4.99106869 8.90398831 3.99311775 7.79786082 3 6.6875 C2.1646875 5.76517578 2.1646875 5.76517578 1.3125 4.82421875 C0 3 0 3 0 0 Z " fill="#C9AB7C" transform="translate(155,222)"/>
<path d="M0 0 C4.39649774 4.32571334 8.49919746 8.86658574 12.59765625 13.4765625 C14.63231324 15.61377943 16.57852003 17.33348492 19 19 C18.67 19.99 18.34 20.98 18 22 C16.2925002 20.71937515 14.62626404 19.38232443 13 18 C13 17.34 13 16.68 13 16 C12.34 16 11.68 16 11 16 C6.76861236 12.23876654 2.94893786 7.84395978 0 3 C0 2.01 0 1.02 0 0 Z " fill="#D1B98E" transform="translate(144,239)"/>
<path d="M0 0 C0.66 0.66 1.32 1.32 2 2 C-3.26571414 8.0614973 -8.61662147 14.04288271 -14 20 C-14.33 19.01 -14.66 18.02 -15 17 C-13.84765625 15.2734375 -13.84765625 15.2734375 -12.0625 13.375 C-11.423125 12.68148437 -10.78375 11.98796875 -10.125 11.2734375 C-9.073125 10.14808594 -9.073125 10.14808594 -8 9 C-6.51698461 7.33675704 -5.0377206 5.67016047 -3.5625 4 C-2.3753141 2.66638699 -1.18793011 1.33295015 0 0 Z " fill="#F8F5EB" transform="translate(221,194)"/>
<path d="M0 0 C0.66 0.66 1.32 1.32 2 2 C-1.41376807 3.65189537 -4.8314872 5.29544896 -8.25 6.9375 C-9.70212891 7.64036133 -9.70212891 7.64036133 -11.18359375 8.35742188 C-12.11816406 8.80537109 -13.05273438 9.25332031 -14.015625 9.71484375 C-14.87446289 10.12855225 -15.73330078 10.54226074 -16.61816406 10.96850586 C-18.74937071 11.89146077 -20.73364413 12.52057857 -23 13 C-23.33 12.34 -23.66 11.68 -24 11 C-22.99839844 10.61328125 -21.99679687 10.2265625 -20.96484375 9.828125 C-19.6222845 9.30236753 -18.27984284 8.77630973 -16.9375 8.25 C-16.28072266 7.99734375 -15.62394531 7.7446875 -14.94726562 7.484375 C-10.36656805 5.67917399 -6.2329903 3.51548487 -2 1 C-1.34 0.67 -0.68 0.34 0 0 Z " fill="#C4AD7C" transform="translate(306,444)"/>
<path d="M0 0 C0.99 0.33 1.98 0.66 3 1 C2.28457031 1.69480469 1.56914062 2.38960937 0.83203125 3.10546875 C-2.08070677 6.01820677 -4.70203182 9.1296625 -7.3125 12.3125 C-7.9940918 13.13717773 -7.9940918 13.13717773 -8.68945312 13.97851562 C-9.79525852 15.31712216 -10.89795939 16.65829231 -12 18 C-12.66 17.67 -13.32 17.34 -14 17 C-12.79917986 12.0466169 -9.72764213 9.83164991 -5.9765625 6.71484375 C-3.65341775 4.69930907 -1.80650255 2.483941 0 0 Z " fill="#F9F7EB" transform="translate(217,224)"/>
<path d="M0 0 C1.5625 1.25 1.5625 1.25 3 3 C2.68698265 6.99966618 0.33312152 9.1595291 -2.3125 12 C-3.09238281 12.845625 -3.87226563 13.69125 -4.67578125 14.5625 C-6.75341294 16.74139441 -8.85901813 18.88351449 -11 21 C-11 19.68 -11 18.36 -11 17 C-10.34 17 -9.68 17 -9 17 C-9 16.34 -9 15.68 -9 15 C-8.34 15 -7.68 15 -7 15 C-6.773125 14.46375 -6.54625 13.9275 -6.3125 13.375 C-5 11 -5 11 -2.375 8.0625 C0.22557688 5.26125791 0.22557688 5.26125791 0.3125 2.125 C0.209375 1.42375 0.10625 0.7225 0 0 Z " fill="#C9B189" transform="translate(182,203)"/>
<path d="M0 0 C0.99 0.33 1.98 0.66 3 1 C2.278125 1.680625 1.55625 2.36125 0.8125 3.0625 C-1.77443578 5.62745049 -3.78468958 8.41575503 -5.7890625 11.44921875 C-7 13 -7 13 -10 15 C-10.99 14.67 -11.98 14.34 -13 14 C-11.38405168 11.95880212 -9.7143618 9.95927063 -8 8 C-7.34 8 -6.68 8 -6 8 C-5.7525 7.4225 -5.505 6.845 -5.25 6.25 C-3.83316683 3.6997003 -2.12372463 1.98214299 0 0 Z " fill="#F8F5EB" transform="translate(202,215)"/>
<path d="M0 0 C0.33 0 0.66 0 1 0 C1.18451025 16.8929385 1.18451025 16.8929385 0 24 C-2.16953768 20.74569348 -2.22098516 20.07827615 -2.01171875 16.3671875 C-1.96466797 15.47902344 -1.91761719 14.59085937 -1.86914062 13.67578125 C-1.80919922 12.75152344 -1.74925781 11.82726562 -1.6875 10.875 C-1.63916016 9.94300781 -1.59082031 9.01101563 -1.54101562 8.05078125 C-1.14389479 1.14389479 -1.14389479 1.14389479 0 0 Z " fill="#C9AF80" transform="translate(336,328)"/>
<path d="M0 0 C0.99 0.33 1.98 0.66 3 1 C1.33784732 2.33895632 -0.32963607 3.67130142 -2 5 C-2.928125 5.804375 -2.928125 5.804375 -3.875 6.625 C-6.74748312 8.48366555 -9.70132007 9.17533002 -13 10 C-11.68144542 6.04433627 -10.14435027 5.74413841 -6.5 3.875 C-3.02894148 2.2555644 -3.02894148 2.2555644 0 0 Z " fill="#C4AE84" transform="translate(295,412)"/>
<path d="M0 0 C0.66 0 1.32 0 2 0 C3.6203364 2.03062341 5.10101986 4.04722813 6.5625 6.1875 C6.97435547 6.76564453 7.38621094 7.34378906 7.81054688 7.93945312 C10.09777407 11.25237632 11.56792078 13.97484092 12 18 C9.06579826 15.20182086 6.64293464 12.31619333 4.3125 9 C3.71050781 8.154375 3.10851562 7.30875 2.48828125 6.4375 C1.12848323 4.21042923 0.44214957 2.54678153 0 0 Z " fill="#D3BA93" transform="translate(131,222)"/>
<path d="M0 0 C0.99 0 1.98 0 3 0 C3 4.29 3 8.58 3 13 C2.01 13.33 1.02 13.66 0 14 C0 9.38 0 4.76 0 0 Z " fill="#C6B38D" transform="translate(163,415)"/>
<path d="M0 0 C0.66 0.33 1.32 0.66 2 1 C-1.1844896 5.05298676 -4.47283798 8.42327213 -8.44921875 11.703125 C-10.12337369 13.06416642 -10.12337369 13.06416642 -12 15 C-12.33 14.01 -12.66 13.02 -13 12 C-12.34 12 -11.68 12 -11 12 C-10.7525 11.4225 -10.505 10.845 -10.25 10.25 C-8.81700012 7.67060021 -7.21575324 5.93878408 -5 4 C-4.34 4 -3.68 4 -3 4 C-3 3.34 -3 2.68 -3 2 C-2.01 1.34 -1.02 0.68 0 0 Z " fill="#F8F5EA" transform="translate(188,231)"/>
<path d="M0 0 C0.33 0 0.66 0 1 0 C1 6.27 1 12.54 1 19 C0.34 19 -0.32 19 -1 19 C-1.96435617 15.10659188 -1.9914425 11.79880017 -1.625 7.8125 C-1.53476563 6.76707031 -1.44453125 5.72164063 -1.3515625 4.64453125 C-1 2 -1 2 0 0 Z " fill="#F2F0E4" transform="translate(240,293)"/>
<path d="M0 0 C0.66 0 1.32 0 2 0 C2 0.66 2 1.32 2 2 C2.66 2 3.32 2 4 2 C5.44526736 3.73548169 6.8087222 5.53975963 8.125 7.375 C8.84945312 8.37273437 9.57390625 9.37046875 10.3203125 10.3984375 C12 13 12 13 12 15 C11.34 15 10.68 15 10 15 C10 14.34 10 13.68 10 13 C9.34 13 8.68 13 8 13 C7.67 11.68 7.34 10.36 7 9 C6.34 9 5.68 9 5 9 C3.7109375 7.5390625 3.7109375 7.5390625 2.375 5.625 C1.92898437 4.99851562 1.48296875 4.37203125 1.0234375 3.7265625 C0 2 0 2 0 0 Z " fill="#F5F1E6" transform="translate(222,286)"/>
<path d="M0 0 C0.33 0 0.66 0 1 0 C1.99 5.28 2.98 10.56 4 16 C3.34 16.33 2.68 16.66 2 17 C-0.1663492 10.91708727 -1.5197276 6.3552245 0 0 Z " fill="#D0B993" transform="translate(166,164)"/>
<path d="M0 0 C0.66 0 1.32 0 2 0 C1.67 1.65 1.34 3.3 1 5 C-2.96 5 -6.92 5 -11 5 C-11.33 4.34 -11.66 3.68 -12 3 C-8.04 3 -4.08 3 0 3 C0 2.01 0 1.02 0 0 Z " fill="#BFA786" transform="translate(239,458)"/>
<path d="M0 0 C0.66 0 1.32 0 2 0 C3.65625 1.71484375 3.65625 1.71484375 5.5 3.9375 C7.88926999 6.92045179 7.88926999 6.92045179 11 9 C10.67 9.99 10.34 10.98 10 12 C5.86378916 8.6189962 2.18683431 5.33409466 -1 1 C-0.67 0.67 -0.34 0.34 0 0 Z " fill="#C8B28E" transform="translate(280,243)"/>
<path d="M0 0 C0.598125 0.226875 1.19625 0.45375 1.8125 0.6875 C1.1525 0.6875 0.4925 0.6875 -0.1875 0.6875 C-0.31125 1.285625 -0.435 1.88375 -0.5625 2.5 C-1.1875 4.6875 -1.1875 4.6875 -3.1875 7.6875 C-3.8475 7.6875 -4.5075 7.6875 -5.1875 7.6875 C-5.5175 8.3475 -5.8475 9.0075 -6.1875 9.6875 C-5.58414218 3.29190714 -5.58414218 3.29190714 -3.875 0.6875 C-2.1875 -0.3125 -2.1875 -0.3125 0 0 Z " fill="#F5F2E8" transform="translate(242.1875,122.3125)"/>
<path d="M0 0 C3.89184848 4.42255509 5 9.19294072 5 15 C4.34 15 3.68 15 3 15 C1.68 10.38 0.36 5.76 -1 1 C-0.67 0.67 -0.34 0.34 0 0 Z " fill="#C7B282" transform="translate(215,343)"/>
<path d="M0 0 C2.18697502 2.79624958 3.99152813 5.63307872 5.6875 8.75 C6.12449219 9.54921875 6.56148437 10.3484375 7.01171875 11.171875 C7.33785156 11.77515625 7.66398438 12.3784375 8 13 C4.62772951 11.60632076 3.09506287 10.15724701 1.1875 7.0625 C0.74792969 6.37285156 0.30835938 5.68320313 -0.14453125 4.97265625 C-1 3 -1 3 0 0 Z " fill="#CDB389" transform="translate(174,190)"/>
<path d="M0 0 C2.9041227 4.35618406 4.19768998 8.1878419 3.625 13.4375 C3.41875 14.283125 3.2125 15.12875 3 16 C2.67 16 2.34 16 2 16 C1.47222137 13.52212405 0.95249746 11.0430336 0.4375 8.5625 C0.28603516 7.85544922 0.13457031 7.14839844 -0.02148438 6.41992188 C-0.39144575 4.62173751 -0.7005656 2.81126406 -1 1 C-0.67 0.67 -0.34 0.34 0 0 Z " fill="#CCBD8B" transform="translate(331,122)"/>
<path d="M0 0 C0.33 0 0.66 0 1 0 C1.3690205 11.52164009 1.3690205 11.52164009 -1 17 C-3 14 -3 14 -2.5390625 10.64453125 C-2.23742187 9.37996094 -1.93578125 8.11539062 -1.625 6.8125 C-1.32851563 5.54019531 -1.03203125 4.26789063 -0.7265625 2.95703125 C-0.48679687 1.98121094 -0.24703125 1.00539063 0 0 Z " fill="#CDB792" transform="translate(333,352)"/>
<path d="M0 0 C3.62613199 0.56959153 5.25517741 1.92374534 7.75 4.5625 C8.36359375 5.20316406 8.9771875 5.84382813 9.609375 6.50390625 C10.06828125 6.99761719 10.5271875 7.49132812 11 8 C10.34 8.66 9.68 9.32 9 10 C7.49702124 8.52386015 5.99768715 7.04400843 4.5 5.5625 C3.6646875 4.73878906 2.829375 3.91507812 1.96875 3.06640625 C0 1 0 1 0 0 Z " fill="#C1A780" transform="translate(183,300)"/>
<path d="M0 0 C0.99 0.33 1.98 0.66 3 1 C1.93283928 2.20205464 0.84561663 3.38632333 -0.25 4.5625 C-1.15492188 5.55443359 -1.15492188 5.55443359 -2.078125 6.56640625 C-4 8 -4 8 -6.171875 7.83984375 C-8 7 -8 7 -9 5 C-8.2575 4.9175 -7.515 4.835 -6.75 4.75 C-3.48778646 3.8603054 -2.19045122 2.51496251 0 0 Z " fill="#D4BB9F" transform="translate(168,224)"/>
<path d="M0 0 C1.485 0.99 1.485 0.99 3 2 C3 2.66 3 3.32 3 4 C3.66 4 4.32 4 5 4 C4.67 4.66 4.34 5.32 4 6 C3.34 5.67 2.68 5.34 2 5 C1.67 7.97 1.34 10.94 1 14 C0.67 14 0.34 14 0 14 C0 9.38 0 4.76 0 0 Z " fill="#B8A782" transform="translate(259,175)"/>
<path d="M0 0 C0.66 0.66 1.32 1.32 2 2 C1.21718695 3.33855056 0.42348123 4.67073644 -0.375 6 C-0.81585938 6.7425 -1.25671875 7.485 -1.7109375 8.25 C-2.13632812 8.8275 -2.56171875 9.405 -3 10 C-3.66 10 -4.32 10 -5 10 C-5 8.35 -5 6.7 -5 5 C-4.01 5 -3.02 5 -2 5 C-2 3.68 -2 2.36 -2 1 C-1.34 0.67 -0.68 0.34 0 0 Z " fill="#F7F4EB" transform="translate(262,141)"/>
<path d="M0 0 C0.66 0 1.32 0 2 0 C3.36952673 2.73905345 3.12621361 4.97087332 3 8 C2.67 8.66 2.34 9.32 2 10 C1.34 10 0.68 10 0 10 C0 6.7 0 3.4 0 0 Z " fill="#F0EFE5" transform="translate(263,130)"/>
<path d="M0 0 C3.63 0.66 7.26 1.32 11 2 C11 2.33 11 2.66 11 3 C7.37 3.33 3.74 3.66 0 4 C0 2.68 0 1.36 0 0 Z " fill="#C1A577" transform="translate(133,459)"/>
<path d="M0 0 C1.79275866 3.11910856 2.34290718 5.67682428 2.625 9.25 C2.69976562 10.14203125 2.77453125 11.0340625 2.8515625 11.953125 C2.92503906 12.96632813 2.92503906 12.96632813 3 14 C2.67 12.68 2.34 11.36 2 10 C1.34 10 0.68 10 0 10 C-0.19412181 8.52168779 -0.38012131 7.04230684 -0.5625 5.5625 C-0.66691406 4.73878906 -0.77132812 3.91507812 -0.87890625 3.06640625 C-0.91886719 2.38449219 -0.95882812 1.70257813 -1 1 C-0.67 0.67 -0.34 0.34 0 0 Z " fill="#C0AB88" transform="translate(236,349)"/>
<path d="M0 0 C0.66 0.66 1.32 1.32 2 2 C-1.63 4.31 -5.26 6.62 -9 9 C-6.57133568 2.92833919 -5.49604732 2.74802366 0 0 Z " fill="#CEB490" transform="translate(203,78)"/>
<path d="M0 0 C4.97093824 0.41153737 9.44508386 0.79600832 14 3 C14 3.33 14 3.66 14 4 C9.02906176 3.58846263 4.55491614 3.20399168 0 1 C0 0.67 0 0.34 0 0 Z " fill="#C4AE7A" transform="translate(281,37)"/>
<path d="M0 0 C0.66 0.66 1.32 1.32 2 2 C0.02 3.98 -1.96 5.96 -4 8 C-4.99 7.67 -5.98 7.34 -7 7 C-4.78071806 4.09197539 -3.07030857 2.04687238 0 0 Z " fill="#F7F4E7" transform="translate(195,248)"/>
<path d="M0 0 C0.66 0.66 1.32 1.32 2 2 C-0.31 4.31 -2.62 6.62 -5 9 C-5.66 8.34 -6.32 7.68 -7 7 C-4.69 4.69 -2.38 2.38 0 0 Z " fill="#C6B389" transform="translate(192,86)"/>
<path d="M0 0 C0.66 0.33 1.32 0.66 2 1 C1.67 4.3 1.34 7.6 1 11 C0.34 10.34 -0.32 9.68 -1 9 C-0.9765625 6.8359375 -0.9765625 6.8359375 -0.625 4.375 C-0.51414063 3.55773437 -0.40328125 2.74046875 -0.2890625 1.8984375 C-0.19367188 1.27195313 -0.09828125 0.64546875 0 0 Z " fill="#D3C196" transform="translate(166,129)"/>
<path d="M0 0 C2.64752004 2.57784846 4.94432065 4.91648098 7 8 C6.01 8 5.02 8 4 8 C0 3.77142857 0 3.77142857 0 0 Z " fill="#C9B38A" transform="translate(144,239)"/>
<path d="M0 0 C2.66735273 2.48952921 4.55746343 4.63408134 6 8 C5.01 8 4.02 8 3 8 C1.02 4.535 1.02 4.535 -1 1 C-0.67 0.67 -0.34 0.34 0 0 Z " fill="#D3B78C" transform="translate(149,213)"/>
<path d="M0 0 C0.66 0 1.32 0 2 0 C3.125 2.8125 3.125 2.8125 4 6 C3.01 7.485 3.01 7.485 2 9 C1.34 6.03 0.68 3.06 0 0 Z " fill="#CBB78D" transform="translate(232,340)"/>
<path d="M0 0 C3 1.8125 3 1.8125 6 4 C6 4.99 6 5.98 6 7 C3.69 5.35 1.38 3.7 -1 2 C-0.67 1.34 -0.34 0.68 0 0 Z " fill="#C7B78F" transform="translate(170,288)"/>
<path d="M0 0 C2.46278801 2.46278801 2.99771255 4.70676982 4 8 C3.01 8 2.02 8 1 8 C0.34 5.69 -0.32 3.38 -1 1 C-0.67 0.67 -0.34 0.34 0 0 Z " fill="#D6BB92" transform="translate(170,181)"/>
<path d="M0 0 C2.04119788 1.61594832 4.04072937 3.2856382 6 5 C6 5.66 6 6.32 6 7 C5.01 6.67 4.02 6.34 3 6 C3 5.34 3 4.68 3 4 C1.68 3.34 0.36 2.68 -1 2 C-0.67 1.34 -0.34 0.68 0 0 Z " fill="#C7AE86" transform="translate(275,191)"/>
<path d="M0 0 C-1 3 -1 3 -3 4 C-3.99 5.485 -3.99 5.485 -5 7 C-5.99 6.34 -6.98 5.68 -8 5 C-2.25 0 -2.25 0 0 0 Z " fill="#C4A468" transform="translate(182,56)"/>
</svg>
